<svg width="100" height="100" viewBox="0 0 100 100" fill="none" xmlns="http://www.w3.org/2000/svg">
<rect width="100" height="100" rx="20" fill="#70A96A"/>
<path d="M50 20C38.9543 20 30 28.9543 30 40C30 47.3347 34.3581 53.6398 40.5002 56.7526C40.0382 57.9881 39.2367 59.4103 38.1459 61.0209C34.093 67.0683 35.1654 75.9225 41.5726 80.4769C48.6559 85.5366 58.6862 82.859 62.8541 75.9791C64.0992 73.9201 64.8745 71.5941 65.1469 69.2437C65.1983 69.2531 65.2501 69.2612 65.3022 69.2679C66.8118 69.4363 68.2305 69.1147 69.5002 68.3635C75.6422 64.9506 78.3335 57.6143 75.9402 51.1501C75.2079 49.4707 74.0666 48.0172 72.6176 46.9055C76.5373 44.6092 78.5002 39.9155 78.0002 35C77.5002 30.0845 73.9039 26.0306 69.5002 25C65.0964 23.9694 60.0002 25.5054 56.5002 28.5C54.5002 23.5 52.5002 20 50 20Z" fill="#F0FAF0"/>
<circle cx="45" cy="45" r="5" fill="#E4B363"/>
<circle cx="58" cy="38" r="4" fill="#E4B363"/>
</svg>
